<?xml version="1.0" encoding="UTF-8"?>
<svg width="483px" height="617px" viewBox="0 0 483 617" version="1.1" xmlns="http://www.w3.org/2000/svg" xmlns:xlink="http://www.w3.org/1999/xlink">
    <title>img_robot</title>
    <defs>
        <path d="M28.7518611,59.3670137 C37.0361323,59.3670137 43.7518611,47.9502749 43.7518611,33.8670137 C43.7518611,19.7837526 36.8563939,11.7279175 28.8975758,7.66215113 C25.3602084,5.85508517 16.9119349,2.03258216 14.2311251,6.29269013 C11.3025689,10.946495 13.7518611,26.5143785 13.7518611,33.8670137 C13.7518611,47.9502749 20.4675898,59.3670137 28.7518611,59.3670137 Z" id="path-1"></path>
        <linearGradient x1="43.0004846%" y1="36.8804336%" x2="56.6163234%" y2="35.0997795%" id="linearGradient-3">
            <stop stop-color="#BBC9E4" offset="0%"></stop>
            <stop stop-color="#8698C5" offset="100%"></stop>
        </linearGradient>
        <linearGradient x1="64.204085%" y1="54.3198022%" x2="39.5370782%" y2="47.4941794%" id="linearGradient-4">
            <stop stop-color="#657CB5" offset="0.882523%"></stop>
            <stop stop-color="#DFE5F1" offset="100%"></stop>
        </linearGradient>
        <linearGradient x1="37.4023218%" y1="111.623011%" x2="54.8671111%" y2="30.3981067%" id="linearGradient-5">
            <stop stop-color="#A9B6D6" offset="0%"></stop>
            <stop stop-color="#DFE5F1" offset="100%"></stop>
        </linearGradient>
        <radialGradient cx="50.0017023%" cy="50.0343436%" fx="50.0017023%" fy="50.0343436%" r="523.701612%" gradientTransform="translate(0.500017,0.500343),scale(0.095472,1.000000),translate(-0.500017,-0.500343)" id="radialGradient-6">
            <stop stop-color="#19033C" offset="0%"></stop>
            <stop stop-color="#19033C" stop-opacity="0" offset="100%"></stop>
        </radialGradient>
        <linearGradient x1="1.69469294%" y1="45.4500099%" x2="106.333155%" y2="55.1910878%" id="linearGradient-7">
            <stop stop-color="#515766" offset="0%"></stop>
            <stop stop-color="#2C3038" offset="100%"></stop>
        </linearGradient>
        <linearGradient x1="77.3198364%" y1="78.3931628%" x2="34.7829235%" y2="30.637507%" id="linearGradient-8">
            <stop stop-color="#657CB5" offset="0.882523%"></stop>
            <stop stop-color="#DFE5F1" offset="100%"></stop>
        </linearGradient>
        <linearGradient x1="10.7669281%" y1="98.6149019%" x2="86.5214628%" y2="6.53446688%" id="linearGradient-9">
            <stop stop-color="#A9B6D6" offset="0%"></stop>
            <stop stop-color="#DFE5F1" offset="100%"></stop>
        </linearGradient>
        <linearGradient x1="73.8346715%" y1="69.670343%" x2="44.2923096%" y2="50.1728225%" id="linearGradient-10">
            <stop stop-color="#657CB5" offset="0.882523%"></stop>
            <stop stop-color="#DFE5F1" offset="100%"></stop>
        </linearGradient>
        <linearGradient x1="15.7961748%" y1="79.8279218%" x2="85.1397017%" y2="26.0237266%" id="linearGradient-11">
            <stop stop-color="#A9B6D6" offset="0%"></stop>
            <stop stop-color="#DFE5F1" offset="100%"></stop>
        </linearGradient>
        <path d="M75.5769085,123.058423 L74.5894295,123.053791 C38.4660515,122.747626 -3.48856006,107.210963 0.662086327,61.5292113 C4.85465843,15.3860282 53.2097394,0 75.6822389,0 L75.5759119,0.001 L75.5769085,0 L75.6822389,0 L75.6819119,0.001 L76.2587783,0.0046311796 C99.0120935,0.31079628 146.446415,15.8474601 150.597061,61.5292113 C154.747708,107.210963 112.793096,122.747626 76.669718,123.053791 L75.6822389,123.058423 L75.6822389,123.058423 L75.5769085,123.058423 L75.5769085,123.058423 Z" id="path-12"></path>
        <linearGradient x1="83.870544%" y1="73.9140752%" x2="68.0656584%" y2="64.7952407%" id="linearGradient-14">
            <stop stop-color="#657CB5" offset="0%"></stop>
            <stop stop-color="#DFE5F1" offset="100%"></stop>
        </linearGradient>
        <path d="M64.1400252,0.00352697012 L64.1400252,73.0340785 C41.800408,73.0340785 -2.86102322e-06,63.8851141 -2.86102322e-06,30.172829 C-2.86102322e-06,-0.985764497 34.5917482,0.00352697012 64.1400252,0.00352697012 Z" id="path-15"></path>
        <path d="M11.5,23 C15.0898509,23 18,18.2989899 18,12.5 C18,6.70101013 15.0898509,2 11.5,2 C7.91014913,2 5,6.70101013 5,12.5 C5,18.2989899 7.91014913,23 11.5,23 Z" id="path-17"></path>
        <linearGradient x1="40.4809697%" y1="36.8804336%" x2="58.9979062%" y2="35.0997795%" id="linearGradient-19">
            <stop stop-color="#BBC9E4" offset="0%"></stop>
            <stop stop-color="#8698C5" offset="100%"></stop>
        </linearGradient>
        <path d="M11.5,23 C15.0898509,23 18,18.2989899 18,12.5 C18,6.70101013 15.0898509,2 11.5,2 C7.91014913,2 5,6.70101013 5,12.5 C5,18.2989899 7.91014913,23 11.5,23 Z" id="path-20"></path>
        <path d="M24,47 C32.2842712,47 39,37.5979797 39,26 C39,14.4020203 32.2842712,5 24,5 C15.7157288,5 9,14.4020203 9,26 C9,37.5979797 15.7157288,47 24,47 Z" id="path-22"></path>
        <linearGradient x1="39.7878185%" y1="36.8804336%" x2="59.6531105%" y2="35.0997795%" id="linearGradient-24">
            <stop stop-color="#BBC9E4" offset="0%"></stop>
            <stop stop-color="#8698C5" offset="100%"></stop>
        </linearGradient>
        <linearGradient x1="72.8373909%" y1="78.3931628%" x2="37.2796338%" y2="30.637507%" id="linearGradient-25">
            <stop stop-color="#657CB5" offset="0.882523%"></stop>
            <stop stop-color="#DFE5F1" offset="100%"></stop>
        </linearGradient>
        <linearGradient x1="8.22110055%" y1="98.6149019%" x2="88.8913345%" y2="6.53446688%" id="linearGradient-26">
            <stop stop-color="#A9B6D6" offset="0%"></stop>
            <stop stop-color="#DFE5F1" offset="100%"></stop>
        </linearGradient>
        <linearGradient x1="73.8346715%" y1="71.7314594%" x2="44.2923096%" y2="50.1909313%" id="linearGradient-27">
            <stop stop-color="#657CB5" offset="0.882523%"></stop>
            <stop stop-color="#DFE5F1" offset="100%"></stop>
        </linearGradient>
        <linearGradient x1="15.7961748%" y1="80.068878%" x2="85.1397017%" y2="25.8300413%" id="linearGradient-28">
            <stop stop-color="#A9B6D6" offset="0%"></stop>
            <stop stop-color="#DFE5F1" offset="100%"></stop>
        </linearGradient>
        <path d="M160.119504,400.444366 L164.103879,388.608428 L185.314816,388.608428 L189.025754,400.444366 L202.072629,400.444366 L181.682004,342.866241 L168.088254,342.866241 L147.541379,400.444366 L160.119504,400.444366 Z M181.955441,378.686553 L167.346066,378.686553 L174.767941,356.030303 L181.955441,378.686553 Z M220.392941,400.444366 L220.392941,342.866241 L208.439816,342.866241 L208.439816,400.444366 L220.392941,400.444366 Z" id="path-29"></path>
        <filter x="-2.7%" y="-3.5%" width="105.5%" height="106.9%" filterUnits="objectBoundingBox" id="filter-30">
            <feGaussianBlur stdDeviation="1" in="SourceAlpha" result="shadowBlurInner1"></feGaussianBlur>
            <feOffset dx="1" dy="2" in="shadowBlurInner1" result="shadowOffsetInner1"></feOffset>
            <feComposite in="shadowOffsetInner1" in2="SourceAlpha" operator="arithmetic" k2="-1" k3="1" result="shadowInnerInner1"></feComposite>
            <feColorMatrix values="0 0 0 0 0   0 0 0 0 0   0 0 0 0 0  0 0 0 0.5 0" type="matrix" in="shadowInnerInner1"></feColorMatrix>
        </filter>
    </defs>
    <g id="Mockups---問卷" stroke="none" stroke-width="1" fill="none" fill-rule="evenodd">
        <g id="Mockup_1" transform="translate(-82.000000, -342.000000)">
            <g id="img_robot" transform="translate(82.112339, 342.555634)">
                <path d="M453.08,615.890038 C469.052409,615.890038 482,602.39105 482,585.738428 C482,569.085805 469.052409,555.586817 453.08,555.586817 C449.459644,555.586817 446.008524,556.310456 442.814471,557.576824 C439.114853,533.656546 419.228604,515.38467 395.24,515.38467 C391.786738,515.38467 388.421307,515.771057 385.173698,516.490229 C376.459947,472.289906 340.56661,447.405599 294.369265,451.285494 C248.171919,455.165389 221.442757,477.528018 212.08,525.435207 C204.023102,519.125703 194.012498,515.38467 183.16,515.38467 C169.7604,515.38467 157.641849,521.088908 148.903724,530.292966 C139.730729,509.626829 119.677387,495.283596 96.4,495.283596 C64.4551822,495.283596 38.56,522.281572 38.56,555.586817 C38.56,556.180916 38.5857067,556.76608 38.6028444,557.355712 C35.5716,556.230052 32.3218489,555.586817 28.92,555.586817 C12.9475911,555.586817 0,569.085805 0,585.738428 C0,602.39105 12.9475911,615.890038 28.92,615.890038 L453.08,615.890038 Z" id="Fill-22" fill="#64B067" opacity="0.200000003" transform="translate(241.000000, 533.390038) scale(-1, 1) translate(-241.000000, -533.390038) "></path>
                <g id="Group-11" transform="translate(34.377532, 0.000000)">
                    <g id="Oval-Copy-3" transform="translate(61.674028, 398.381379)">
                        <mask id="mask-2" fill="white">
                            <use xlink:href="#path-1"></use>
                        </mask>
                        <use id="Mask" fill="#DFE5F1" transform="translate(28.272188, 31.859896) rotate(32.000000) translate(-28.272188, -31.859896) " xlink:href="#path-1"></use>
                        <path d="M32.1588009,64.0242845 C38.7574642,62.0085724 42.3687426,51.9751274 41.5491794,39.7731029 C40.7296162,27.5710784 37.0105291,22.7383569 35.9329671,21.64621 C34.855405,20.554063 20.2527572,10.2006382 21.600389,25.4626769 C21.9240876,29.1285897 31.1068306,39.9135052 31.9355999,43.8886498 C34.7120602,57.2057824 27.1634425,65.5502306 32.1588009,64.0242845 Z" fill="url(#linearGradient-3)" opacity="0.600000024" mask="url(#mask-2)" transform="translate(31.588336, 40.703546) rotate(50.000000) translate(-31.588336, -40.703546) "></path>
                    </g>
                    <g id="Group-9" transform="translate(164.183885, 154.000000) rotate(36.000000) translate(-164.183885, -154.000000) translate(66.683885, 35.000000)" fill-rule="nonzero">
                        <path d="M30.5302248,210.497842 C29.6829616,211.085362 28.5262688,210.921963 27.8749025,210.122741 C21.9522504,202.620715 22.0608323,193.549186 28.1216796,183.154931 C28.9508509,181.733495 29.8392487,180.331801 30.6881622,178.969591 C32.8943412,175.75086 34.744497,172.30209 36.2060997,168.683918 C38.8416799,161.418798 37.8052158,154.341229 36.7193962,146.849074 C36.4528769,145.013052 36.1863575,143.127674 35.9593225,141.222555 C34.9722139,132.940713 38.4468364,123.997508 45.6626009,116.041412 C53.5594703,107.285758 62.6507413,99.5468262 71.4063952,92.0645424 C79.6981082,84.967231 88.2760826,77.6330135 95.7682375,69.5288512 C96.1836892,68.8450335 96.9707994,68.4795982 97.7612715,68.6035359 C98.5517436,68.7274736 99.1892399,69.3162723 99.3754697,70.0944273 C99.5616995,70.8725823 99.2598306,71.686192 98.6111105,72.1545603 C90.9708893,80.4265311 82.3040751,87.8397173 73.9333935,95.0061263 C65.2665793,102.409441 56.3135035,110.069405 48.5449582,118.637508 C44.8038163,122.763622 38.6738714,131.124433 39.8189175,140.778356 C40.0360814,142.624249 40.3026007,144.489884 40.5691201,146.286422 C41.6746818,153.926643 42.8197279,161.833384 39.8584018,169.977031 C38.291631,173.860206 36.3056509,177.560748 33.9357497,181.012906 C33.1065785,182.345502 32.2379228,183.727454 31.4383648,185.089664 C26.1869466,194.092096 26.009267,201.495411 30.895455,207.714195 C31.532356,208.56 31.3886393,209.757639 30.5697091,210.428744 C30.5619415,210.454466 30.5484415,210.478091 30.5302248,210.497842 L30.5302248,210.497842 Z" id="Path" fill="#E88300"></path>
                        <path d="M38.1825754,209.21873 C42.2007923,211.859482 44.8927791,215.058809 48.1587766,218.587675 C50.132994,220.561892 52.9178497,221.553459 54.7933562,223.616516 C55.7968661,224.610869 56.586293,225.800048 57.1130616,227.110881 C57.9817172,230.022852 54.5125286,228.113319 52.6172799,227.284147 C53.6043886,227.698733 56.6224596,234.74278 55.99071,235.492983 C55.1121833,236.480091 49.8005903,230.898048 48.862837,232.349098 C47.6881777,234.175249 49.6524896,239.065272 46.9754554,237.159647 C42.1797806,233.745886 39.0337085,230.984239 35.4998595,225.949985 C33.1110565,222.554331 25.1998379,213.617105 27.3616059,209.036921 C28.1503319,207.110435 30.1191392,205.938813 32.1885674,206.164435 C33.3440202,206.33617 34.4601096,206.710428 35.4855104,207.269996 C36.2653262,207.694453 37.4422439,208.76466 38.1825754,209.21873 Z" id="Path" fill="#E88300"></path>
                        <path d="M0.403667881,137.747932 L64.7137984,37.0628467 C67.1649604,33.233469 70.9789831,30.4779169 75.3844432,29.353528 L191.182163,0.0758845026 C192.201046,-0.177308529 193.271403,0.215593069 193.884504,1.06784686 C194.497605,1.92010065 194.529809,3.05983723 193.965809,3.94535053 L129.66555,104.630436 C127.215691,108.465295 123.396271,111.222196 118.985034,112.339755 L3.19718545,141.617398 C2.17674815,141.876099 1.10180897,141.485414 0.485610651,140.631882 C-0.130587669,139.778349 -0.163071927,138.635076 0.403667881,137.747932 L0.403667881,137.747932 Z" id="Path" fill="#526785"></path>
                        <path d="M165.142236,52.8368435 C155.952254,40.1130126 124.67078,46.9931601 95.2845542,68.2061256 C65.8983288,89.4190911 49.5123247,116.92981 58.7023065,129.653641 L78.6419019,157.292684 C87.8318837,170.016515 119.113358,163.136367 148.489712,141.933273 C177.866066,120.730178 194.261942,93.1997174 185.081831,80.4758865 L165.142236,52.8368435 Z" id="Path" fill="#3E4E66"></path>
                        <path d="M139.428054,129.387122 C110.031958,150.600087 78.7603549,157.470364 69.5802442,144.746533 L78.651773,157.292684 C87.8417548,170.016515 119.123229,163.136367 148.499583,141.933273 C177.875937,120.730178 194.271813,93.1997174 185.091702,80.4758865 L176.020173,67.909993 C185.200284,80.643695 168.824151,108.154414 139.428054,129.387122 Z" id="Path" fill="#3E4E66"></path>
                        <ellipse id="Oval" fill="#526785" transform="translate(128.446027, 114.125266) rotate(-35.820000) translate(-128.446027, -114.125266) " cx="128.446027" cy="114.125266" rx="61.7436479" ry="18.7748071"></ellipse>
                    </g>
                    <g id="Group" transform="translate(94.475138, 260.932395)" fill-rule="nonzero">
                        <g transform="translate(0.000000, 15.469613)">
                            <path d="M181.224678,10.4751381 C164.001842,-1.75322284 97.6887661,0.47145488 97.6887661,0.47145488 C97.6887661,0.47145488 31.3756906,-1.75322284 14.1528545,10.4751381 C-3.06998158,22.7034991 1.36464088,97.7237569 21.3720074,162.740331 C41.3793738,227.756906 71.1841621,247.911602 97.6887661,247.911602 C124.19337,247.911602 153.998158,227.756906 174.005525,162.740331 C194.012891,97.7384899 198.447514,22.7034991 181.224678,10.4751381 Z" id="Path" fill="#DFE5F1"></path>
                            <path d="M31.3904236,7.24861878 C31.3904236,7.24861878 18.0570902,10.092081 14.7127072,17.3112339 C11.3830571,24.5156538 -2.12707182,85.0828729 40.1418048,194.6814 C40.1418048,194.6814 12.2228361,84.1252302 15.9650092,43.2854512 C15.9650092,43.2854512 17.2173112,21.6132597 21.3867403,16.1915285 C25.5561694,10.7550645 31.3904236,7.24861878 31.3904236,7.24861878 Z" id="Path" fill="#FFFFFF" opacity="0.55"></path>
                            <path d="M182.565378,11.6243094 C174.226519,5.61325967 144.480663,3.63904236 144.480663,3.63904236 L140.812155,7.23388582 C140.812155,7.23388582 117.735102,30.5012561 119.77809,61.426832 C121.821078,92.3524079 146.461578,129.700124 127.636867,180.834958 C108.812155,231.969792 63.3609576,235.255985 63.3609576,235.255985 C74.7348066,244.287293 86.5064457,247.896869 97.6887661,247.896869 C124.19337,247.896869 153.998158,227.742173 174.005525,162.725599 C193.467772,99.4769797 198.197053,26.7550645 182.565378,11.6243094 Z" id="Path" fill="url(#linearGradient-4)" opacity="0.600000024"></path>
                            <path d="M75.0492444,242.808777 C81.0942629,246.028084 92.4732965,247.926335 97.6887661,247.926335 C124.19337,247.926335 153.323382,228.028591 174.005525,162.755064 C180.30155,142.8846 186.012244,113.034825 189.047235,94.5302209 C181.253497,124.246611 166.885375,181.778606 148.410237,208.931461 C129.036388,237.395549 91.8913143,243.970929 75.0492444,242.808777 Z" id="Path" fill="url(#linearGradient-5)"></path>
                            <ellipse id="Oval" fill="url(#radialGradient-6)" opacity="0.59" cx="99.7366483" cy="268.891344" rx="98.9171271" ry="9.44383057"></ellipse>
                        </g>
                        <g transform="translate(47.935543, 0.000000)" id="Path">
                            <path d="M94.6003683,5.18600368 C92.5230203,0.191528545 87.9263352,0.191528545 87.9263352,0.191528545 C76.4640884,2.26887661 49.7532228,2.6961326 49.7532228,2.6961326 C49.7532228,2.6961326 23.0423573,2.28360958 11.5801105,0.191528545 C11.5801105,0.191528545 6.99815838,0.191528545 4.90607735,5.18600368 C2.82872928,10.1804788 -1.13443831,21.8342541 0.32412523,24.7661142 C1.78268877,27.6979742 28.7292818,36.6556169 49.7532228,36.6556169 C70.7624309,36.6556169 97.7237569,27.6979742 99.1823204,24.7661142 C100.640884,21.8195212 96.6777164,10.1804788 94.6003683,5.18600368 Z" fill="#515766"></path>
                            <path d="M47.7053407,2.63720074 C44.7440147,15.1160221 36.228361,26.7697974 29.3922652,34.5046041 C36.1252302,35.786372 43.2265193,36.6556169 49.7532228,36.6556169 C70.7624309,36.6556169 97.7237569,27.6979742 99.1823204,24.7661142 C100.640884,21.8342541 96.6777164,10.1952118 94.6003683,5.18600368 C92.5230203,0.191528545 87.9263352,0.191528545 87.9263352,0.191528545 C76.4640884,2.26887661 49.7532228,2.6961326 49.7532228,2.6961326 C49.7532228,2.6961326 49.0018416,2.66666667 47.7053407,2.63720074 Z" fill="url(#linearGradient-7)"></path>
                            <path d="M11.5801105,0.17679558 C11.5801105,0.17679558 6.99815838,0.17679558 4.90607735,5.17127072 C3.15285451,9.37016575 0.103130755,18.2246777 0.014732965,22.7034991 C0.250460405,21.907919 6.15837937,3.68324125 9.28176796,2.46040516 C12.4788214,1.20810313 23.587477,3.19705341 30.8066298,1.98895028 C30.8066298,1.98895028 30.8066298,1.98895028 30.8066298,1.98895028 C23.7790055,1.62062615 16.3535912,1.04604052 11.5801105,0.17679558 Z" fill="#778096"></path>
                        </g>
                    </g>
                    <g id="Group" transform="translate(300.000000, 196.107349)" fill-rule="nonzero">
                        <g transform="translate(54.565378, 0.000000)" id="Path">
                            <path d="M0.279926335,42.961326 C0.279926335,42.961326 14.9392265,14.8213628 17.8268877,7.9558011 C20.7145488,1.07550645 30.1878453,-1.23756906 38.6740331,0.61878453 C47.160221,2.47513812 57.5174954,14.9097606 58.7255985,19.5359116 C59.9337017,24.1620626 38.2615101,60.1252302 28.8766114,63.2928177 C19.5064457,66.4604052 -1.28176796,50.7992634 0.279926335,42.961326 Z" fill="#DFE5F1"></path>
                            <path d="M58.7255985,19.5359116 C58.3867403,18.2099448 57.267035,16.2504604 55.6906077,14.0847145 C50.2099448,9.06077348 43.6095764,4.36095764 43.6095764,4.36095764 C43.6095764,4.36095764 47.3640712,12.0124851 44.8594671,16.4471076 C42.3548631,20.896463 38.7247901,26.8660586 28.8766114,36.1251632 C21.4382789,43.1185679 7.84164561,47.5897399 0.79558011,46.4825046 C4.11049724,54.6740331 20.7587477,66.0331492 28.8766114,63.2928177 C38.2615101,60.1252302 59.9337017,24.1620626 58.7255985,19.5359116 Z" fill="url(#linearGradient-8)" opacity="0.600000024"></path>
                            <path d="M57.8710866,23.4106814 C45.9259379,44.5908939 32.6309227,53.1057573 27.0899912,54.6310802 C19.612673,56.6894568 22.6151013,52.9944751 22.0552486,52.8471455 C22.0552486,52.8471455 19.0497238,57.0755064 20.4640884,62.6151013 C23.6169429,63.6906077 26.5782689,64.0589319 28.8618785,63.2928177 C36.8766114,60.5966851 53.8195212,34.0331492 57.8710866,23.4106814 Z" fill="url(#linearGradient-9)" opacity="0.56"></path>
                            <path d="M10.53407,28.7440147 C10.53407,28.7440147 21.1565378,5.61325967 23.0423573,4.97974217 C24.9134438,4.36095764 18.0478821,18.106814 16.1620626,21.8637201 C14.2909761,25.6206262 10.53407,33.7384899 10.53407,28.7440147 Z" fill="#FFFFFF" opacity="0.55"></path>
                        </g>
                        <g transform="translate(0.000000, 39.779006)" id="Path">
                            <path d="M20.1931198,84.8965502 C20.1931198,84.8965502 -7.27388923,92.7034922 2.46460064,67.6869176 C12.2030905,42.685076 24.3186004,31.145488 29.9907919,17.8563536 C35.6629834,4.58195212 49.3941068,-3.52117864 65.1731123,2.32780847 C80.9521179,8.17679558 92.3848987,28.1546961 87.0810313,39.9705341 C81.7771639,51.8305709 39.5080369,80.5208596 20.1931198,84.8965502 Z" fill="#DFE5F1"></path>
                            <path d="M71.6850829,5.70165746 C76.6500921,15.6464088 73.3416974,27.4853673 67.6253069,33.9678719 C61.3785298,41.054428 44.018177,54.351758 31.0492437,64.880991 C20.2366253,73.6595524 8.3821124,75.1881295 1.05982879,76.6024941 C2.62152308,88.6835254 27.0912866,82.4652803 27.0912866,82.4652803 C46.4062037,78.0895896 81.7771639,51.8305709 87.0810313,40 C91.6040516,29.878453 83.8839779,13.8047882 71.6850829,5.70165746 Z" fill="url(#linearGradient-10)" opacity="0.600000024"></path>
                            <path d="M87.0662983,40 C88.3480663,37.1565378 88.6427256,33.8268877 88.1418048,30.3499079 C85.7845304,38.8508287 79.2725599,48.6777164 57.0257827,64.3388582 C25.0699816,86.8508287 15.640884,82.9171271 8.23020258,83.2265193 C14.388582,86.4677716 24.5101289,83.9926335 24.5101289,83.9926335 C43.839779,79.6022099 81.7771639,51.8305709 87.0662983,40 Z" fill="url(#linearGradient-11)" opacity="0.56"></path>
                            <path d="M9.67403315,61.480663 C9.67403315,61.480663 25.9244936,32.7219153 28.8416206,25.2228361 C31.7587477,17.7237569 38.2265193,5.21546961 50.7200737,3.34438306 C50.7200737,3.34438306 37.7992634,10.0184162 31.7587477,24.6040516 C25.718232,39.1896869 9.67403315,61.480663 9.67403315,61.480663 Z" fill="#FFFFFF" opacity="0.55"></path>
                        </g>
                    </g>
                    <g id="Group-10" transform="translate(115.510129, 136.444366)">
                        <g id="Path-7" transform="translate(0.623088, 0.000000)">
                            <mask id="mask-13" fill="white">
                                <use xlink:href="#path-12"></use>
                            </mask>
                            <use id="Mask" fill="#DFE5F1" xlink:href="#path-12"></use>
                            <path d="M150.647066,55.0584227 C150.647066,55.0584227 156.835316,81.2219362 143.074814,99.441989 C132.197007,113.845113 105.894853,121.410234 73,123.058423 C92.8868961,118.097734 119.000153,111.747779 131.994526,98.5591525 C148.683459,81.6207354 150.647066,55.0584227 150.647066,55.0584227 Z" fill="url(#linearGradient-14)" fill-rule="nonzero" mask="url(#mask-13)"></path>
                        </g>
                        <g id="Group-5" transform="translate(12.199999, 39.999998)">
                            <path d="M64.1400281,0.00352697012 L64.1400281,73.0340785 C41.8004108,73.0340785 1.81898932e-14,63.8851141 1.81898932e-14,30.172829 C1.81898932e-14,-0.985764497 34.5917511,0.00352697012 64.1400281,0.00352697012 Z" id="Path-6" fill="#002A83" opacity="0.600000024"></path>
                            <g id="Oval" transform="translate(64.000000, 0.000000)">
                                <mask id="mask-16" fill="white">
                                    <use xlink:href="#path-15"></use>
                                </mask>
                                <use id="Mask" fill="#002A83" opacity="0.600000024" transform="translate(32.070011, 36.517039) scale(-1, 1) translate(-32.070011, -36.517039) " xlink:href="#path-15"></use>
                                <path d="M33.4953468,68.1135824 C41.5034757,68.1135824 71.1020527,50.8516793 73.8000005,19.5000018 C74.916809,6.52205565 29.9192996,-3.93979223 37.1999988,1.68939815 C49.9540004,11.5503608 57.2138506,19.2641979 56.595673,34.2961478 C55.9710651,49.4844586 44.9621435,61.3711969 33.4953468,68.1135824 Z" fill="#353535" opacity="0.200000003" mask="url(#mask-16)"></path>
                            </g>
                        </g>
                        <g id="Group-7" transform="translate(39.399998, 55.359998)" fill="#C4D1EC">
                            <ellipse id="Oval" cx="7.99999964" cy="14.8799993" rx="7.99999964" ry="14.8799993"></ellipse>
                            <ellipse id="Oval-Copy" cx="65.5999971" cy="14.8799993" rx="7.99999964" ry="14.8799993"></ellipse>
                        </g>
                        <path d="M76.3599966,105.646883 C79.7178878,105.646883 82.4399964,101.538773 82.4399964,96.4711625 C82.4399964,91.4035521 79.7178878,97.4476487 76.3599966,97.4476487 C73.0021055,97.4476487 70.2799969,91.4035521 70.2799969,96.4711625 C70.2799969,101.538773 73.0021055,105.646883 76.3599966,105.646883 Z" id="Oval" fill="#FFFFFF" opacity="0.600000024"></path>
                    </g>
                    <path d="M126.451847,157.444366 C148.091142,141.577222 169.177345,133.64365 189.710457,133.64365 C210.243568,133.64365 232.912618,141.577222 257.717606,157.444366 L257.717606,171.047091 C239.685833,159.655149 222.679041,149.578688 189.710457,149.578688 C156.741873,149.578688 139.442899,160.769225 126.451847,169.693453 L126.451847,157.444366 Z" id="Rectangle" fill="#3E4E66"></path>
                    <g id="Oval-Copy-2" transform="translate(366.510129, 184.444366)">
                        <mask id="mask-18" fill="white">
                            <use xlink:href="#path-17"></use>
                        </mask>
                        <use id="Mask" fill="#DFE5F1" transform="translate(11.500000, 12.500000) rotate(-27.000000) translate(-11.500000, -12.500000) " xlink:href="#path-17"></use>
                        <path d="M14.1902822,16.9348891 C16.1232788,16.9348891 17.6902822,13.8008823 17.6902822,9.93488908 C17.6902822,6.06889583 16.1232788,2.93488908 14.1902822,2.93488908 C12.2572856,2.93488908 10.6902822,6.06889583 10.6902822,9.93488908 C10.6902822,13.8008823 12.2572856,16.9348891 14.1902822,16.9348891 Z" fill="url(#linearGradient-19)" mask="url(#mask-18)" transform="translate(14.190282, 9.934889) rotate(-35.000000) translate(-14.190282, -9.934889) "></path>
                    </g>
                    <g id="Oval-Copy-4" transform="translate(75.010129, 425.944366) rotate(96.000000) translate(-75.010129, -425.944366) translate(63.510129, 413.444366)">
                        <mask id="mask-21" fill="white">
                            <use xlink:href="#path-20"></use>
                        </mask>
                        <use id="Mask" fill="#DFE5F1" transform="translate(11.500000, 12.500000) rotate(-27.000000) translate(-11.500000, -12.500000) " xlink:href="#path-20"></use>
                        <path d="M14.1902822,16.9348891 C16.1232788,16.9348891 17.6902822,13.8008823 17.6902822,9.93488908 C17.6902822,6.06889583 16.1232788,2.93488908 14.1902822,2.93488908 C12.2572856,2.93488908 10.6902822,6.06889583 10.6902822,9.93488908 C10.6902822,13.8008823 12.2572856,16.9348891 14.1902822,16.9348891 Z" id="Oval-Copy-2" fill="url(#linearGradient-19)" mask="url(#mask-21)" transform="translate(14.190282, 9.934889) rotate(-35.000000) translate(-14.190282, -9.934889) "></path>
                    </g>
                    <g id="Oval-Copy-3" transform="translate(380.674028, 169.381379)">
                        <mask id="mask-23" fill="white">
                            <use xlink:href="#path-22"></use>
                        </mask>
                        <use id="Mask" fill="#DFE5F1" transform="translate(24.000000, 26.000000) rotate(32.000000) translate(-24.000000, -26.000000) " xlink:href="#path-22"></use>
                        <path d="M28.2570612,50.4108959 C34.8557245,48.7420999 38.4670028,40.4354713 37.6474396,30.3334887 C36.8278764,20.2315061 33.1087893,16.2305251 32.0312273,15.3263432 C30.9536653,14.4221613 16.3510174,5.85062329 17.6986493,18.4859732 C18.0223479,21.5209603 27.2050909,30.4497269 28.0338602,33.7407252 C30.8103204,44.7658991 23.2617028,51.6742174 28.2570612,50.4108959 Z" fill="url(#linearGradient-24)" mask="url(#mask-23)" transform="translate(27.686596, 31.103797) rotate(50.000000) translate(-27.686596, -31.103797) "></path>
                    </g>
                    <g id="Group" transform="translate(63.065378, 394.107349) rotate(85.000000) translate(-63.065378, -394.107349) translate(33.565378, 362.107349)" fill-rule="nonzero">
                        <path d="M0.279926335,42.961326 C0.279926335,42.961326 14.9392265,14.8213628 17.8268877,7.9558011 C20.7145488,1.07550645 30.1878453,-1.23756906 38.6740331,0.61878453 C47.160221,2.47513812 57.5174954,14.9097606 58.7255985,19.5359116 C59.9337017,24.1620626 38.2615101,60.1252302 28.8766114,63.2928177 C19.5064457,66.4604052 -1.28176796,50.7992634 0.279926335,42.961326 Z" id="Path" fill="#DFE5F1"></path>
                        <path d="M58.7255985,19.5359116 C58.3867403,18.2099448 57.267035,16.2504604 55.6906077,14.0847145 C50.2099448,9.06077348 46.1133544,6.46996103 46.1133544,6.46996103 C46.1133544,6.46996103 46.2678083,11.8021066 46.2199298,16.7042111 C46.1720513,21.6063155 45.126328,30.2086362 35.2781494,39.4677408 C27.8398169,46.4611455 14.8705188,56.2209712 7.82445333,55.1137359 C11.1393705,63.3052645 20.4000551,64.0213837 28.8766114,63.2928177 C37.3149734,62.5675344 59.9337017,24.1620626 58.7255985,19.5359116 Z" id="Path" fill="url(#linearGradient-25)" opacity="0.600000024"></path>
                        <path d="M57.8710866,23.4106814 C45.9259379,44.5908939 34.1756275,52.069624 28.1143849,55.9737449 C20.3095021,61.000966 16.9872596,59.2463684 20.4640884,62.6151013 C23.6169429,63.6906077 27.4857136,63.7249896 29.7636252,62.9410506 C37.8238715,60.167132 53.8195212,34.0331492 57.8710866,23.4106814 Z" id="Path" fill="url(#linearGradient-26)" opacity="0.600000024"></path>
                        <path d="M10.53407,28.7440147 C10.53407,28.7440147 21.1565378,5.61325967 23.0423573,4.97974217 C24.9134438,4.36095764 18.0478821,18.106814 16.1620626,21.8637201 C14.2909761,25.6206262 10.53407,33.7384899 10.53407,28.7440147 Z" id="Path" fill="#FFFFFF" opacity="0.55"></path>
                    </g>
                    <g id="Group" transform="translate(62.127653, 348.697651) rotate(161.000000) translate(-62.127653, -348.697651) translate(16.127653, 293.697651)" fill-rule="nonzero">
                        <path d="M23.1931198,90.8965502 C23.1931198,90.8965502 -4.27388923,98.7034922 5.46460064,73.6869176 C15.2030905,48.685076 27.3186004,37.145488 32.9907919,23.8563536 C38.6629834,10.5819521 52.3941068,2.47882136 68.1731123,8.32780847 C83.9521179,14.1767956 95.3848987,34.1546961 90.0810313,45.9705341 C84.7771639,57.8305709 42.5080369,86.5208596 23.1931198,90.8965502 Z" id="Path" fill="#DFE5F1"></path>
                        <path d="M71.0427823,7.35908672 C76.0077915,17.3038381 73.9309374,29.602469 66.9866849,37.0274626 C60.0424324,44.4524562 52.8435035,52.0504061 39.8745702,62.579639 C29.0619518,71.3582005 10.7786072,78.1657867 3.45632355,79.5801514 C5.01801784,91.6611827 26.0437738,84.2919273 26.0437738,84.2919273 C45.3586909,79.9162366 80.7296511,53.6572179 86.0335185,41.826647 C90.5565388,31.7051 83.2416773,15.4622175 71.0427823,7.35908672 Z" id="Path" fill="url(#linearGradient-27)" opacity="0.600000024" transform="translate(45.419526, 46.938258) scale(-1, 1) rotate(-97.000000) translate(-45.419526, -46.938258) "></path>
                        <path d="M70.9278252,32.8566691 C72.2095931,30.0132069 72.5042524,26.6835568 72.0033316,23.206577 C69.6460572,31.7074979 63.1340867,41.5343855 40.8873095,57.1955273 C8.93150842,79.7074979 0.309569688,73.5347778 -7.10111171,73.8441701 C-0.0174799196,78.6400079 7.95411492,77.2273727 7.95411492,77.2273727 C27.283765,72.8369491 65.6386907,44.68724 70.9278252,32.8566691 Z" id="Path" fill="url(#linearGradient-28)" opacity="0.56" transform="translate(32.566553, 50.314045) scale(-1, 1) rotate(-97.000000) translate(-32.566553, -50.314045) "></path>
                        <path d="M21.1737674,102.821291 C21.1737674,102.821291 37.4242278,74.0625429 40.3413549,66.5634637 C43.2584819,59.0643845 49.7262536,46.5560972 62.2198079,44.6850107 C62.2198079,44.6850107 49.2989976,51.3590438 43.2584819,65.9446792 C37.2179663,80.5303145 21.1737674,102.821291 21.1737674,102.821291 Z" id="Path" fill="#FFFFFF" opacity="0.55" transform="translate(41.696788, 73.753151) rotate(-151.000000) translate(-41.696788, -73.753151) "></path>
                    </g>
                    <g id="AI" opacity="0.400000006" fill-rule="nonzero">
                        <use fill="#333333" xlink:href="#path-29"></use>
                        <use fill="black" fill-opacity="1" filter="url(#filter-30)" xlink:href="#path-29"></use>
                    </g>
                </g>
            </g>
        </g>
    </g>
</svg>