<?xml version="1.0" encoding="utf-8"?>
<!-- Generator: Adobe Illustrator 25.3.1, SVG Export Plug-In . SVG Version: 6.00 Build 0)  -->
<svg version="1.1" id="Layer_1" xmlns="http://www.w3.org/2000/svg" xmlns:xlink="http://www.w3.org/1999/xlink" x="0px" y="0px"
	 viewBox="0 0 87 34" style="enable-background:new 0 0 87 34;" xml:space="preserve">
<style type="text/css">
	.st0{fill-rule:evenodd;clip-rule:evenodd;fill:#64B067;}
	.st1{fill-rule:evenodd;clip-rule:evenodd;fill:#F7B62D;}
</style>
<g id="Mockups---問卷">
	<g id="Mockup_1" transform="translate(-33.000000, -23.000000)">
		<g id="img_logo" transform="translate(33.319607, 23.648563)">
			<path id="Combined-Shape" class="st0" d="M15.1,0l14.3,32.3h-4.7l-3.4-7.2H8.5l-3.7,7.2H0L15.1,0z M14.7,10.2l-4.6,10.3h9.3
				L14.7,10.2z"/>
			<rect id="Rectangle" x="31.7" y="11.4" class="st1" width="5" height="21"/>
			<rect id="Rectangle-Copy-2" x="61.7" y="1.4" class="st0" width="5" height="31"/>
			<polygon id="Rectangle-Copy-3" class="st0" points="78.8,1.4 84.7,1.4 66.7,19.3 61.7,19.3 66.8,12.9 			"/>
			<polygon id="Rectangle-Copy-4" class="st0" points="79.7,32.4 85.7,32.4 69.9,13.3 66.2,16.5 			"/>
			<rect id="Rectangle-Copy" x="31.7" y="1.4" class="st0" width="5" height="5"/>
			<path id="Path-4" class="st0" d="M40.1,1.4C49,1.4,58.8,4,58.8,17.6s-12.5,15-18.8,14.7v-4.1c4.6,0,14.7-1.4,14.2-10.6
				S48.2,5.8,40.1,5.8V1.4z"/>
		</g>
	</g>
</g>
</svg>
