<?xml version="1.0" encoding="UTF-8"?>
<svg width="429px" height="195px" viewBox="0 0 429 195" version="1.1" xmlns="http://www.w3.org/2000/svg" xmlns:xlink="http://www.w3.org/1999/xlink">
    <title>img_cloud</title>
    <g id="Mockups---問卷" stroke="none" stroke-width="1" fill="none" fill-rule="evenodd" opacity="0.200000003">
        <g id="Mockup_1" transform="translate(-690.000000, -292.000000)" fill="#64B067">
            <path d="M1053.96869,486.475138 C1089.36448,486.475138 1124.78872,460.525401 1118.05709,422.38674 C1111.32546,384.24808 1088.26085,368.212292 1053.96869,364.573288 C1028.85027,361.90778 1005.95699,373.541887 995.793043,395.505218 C988.491713,388.127931 979.05885,382.865562 968.491385,380.726908 C968.493759,380.370861 968.612767,380.016929 968.517495,379.661142 C952.720829,320.668958 920.695682,292 861.703499,292 C802.711316,292 762.576873,320.668958 754.889503,379.661142 C754.84257,380.021303 754.913239,380.375609 754.917986,380.736403 C751.457213,380.03143 747.875384,379.661142 744.208103,379.661142 C714.713198,379.661142 690.801105,403.573235 690.801105,433.06814 C690.801105,462.563045 714.713198,486.475138 744.208103,486.475138 L1053.96869,486.475138 Z" id="img_cloud"></path>
        </g>
    </g>
</svg>