<?xml version="1.0" encoding="UTF-8"?>
<svg width="556px" height="262px" viewBox="0 0 556 262" version="1.1" xmlns="http://www.w3.org/2000/svg" xmlns:xlink="http://www.w3.org/1999/xlink">
    <title>img_school</title>
    <g id="Mockups---問卷" stroke="none" stroke-width="1" fill="none" fill-rule="evenodd">
        <g id="Mockup_1-Copy" transform="translate(-315.000000, -184.000000)">
            <g id="img_school" transform="translate(315.000000, 184.000000)">
                <path d="M60,262 L248,262 C247.99483,236.602245 234.970539,225.488757 208.927129,228.659536 C184.871227,231.588336 207.580989,203 154,203 C128.167845,203 132.893664,219.461732 118.071484,228.659536 C102.862049,238.097647 79.4087391,207.642981 60,262 Z" id="Path-11-Copy" fill="#BBDBC6"></path>
                <path d="M328,262 L483,262 C482.995737,246.503065 472.257626,239.721953 450.785664,241.656666 C430.952341,243.44373 449.675816,226 405.5,226 C384.202213,226 388.0985,236.044447 375.878085,241.656666 C363.338392,247.415514 344.001886,228.833005 328,262 Z" id="Path-11-Copy-2" fill="#BBDBC6"></path>
                <g id="Group-9" transform="translate(117.000000, 0.000000)">
                    <rect id="Rectangle" fill="#F3CCAB" x="32" y="162" width="262" height="86"></rect>
                    <polygon id="Rectangle-Copy-9" fill="#E2B895" points="54 103 272 103 325 155 1 155"></polygon>
                    <line x1="43.1388954" y1="114.47089" x2="281.707245" y2="114.47089" id="Path-12" stroke="#FFFFFF" stroke-width="2" opacity="0.300000012"></line>
                    <line x1="29" y1="129" x2="298" y2="129" id="Path-12-Copy" stroke="#FFFFFF" stroke-width="2" opacity="0.300000012"></line>
                    <line x1="15" y1="142" x2="310" y2="142" id="Path-12-Copy-2" stroke="#FFFFFF" stroke-width="2" opacity="0.300000012"></line>
                    <rect id="Rectangle-Copy-7" fill="#F17C24" x="1" y="155" width="324" height="7"></rect>
                    <rect id="Rectangle-Copy-8" fill="#F29651" x="54" y="96" width="218" height="7"></rect>
                    <g id="Group-2" transform="translate(119.000000, 0.000000)">
                        <polygon id="Rectangle-Copy-10" fill="#FDDCBD" points="11 36.9226309 42.5806452 9 77 37.4057612 77 105.918409 43.3191161 84.1140928 11 105.918409"></polygon>
                        <circle id="Oval" stroke="#CD9063" stroke-width="2" fill-opacity="0.7" fill="#FFFFFF" cx="44" cy="49" r="15"></circle>
                        <g id="Group-Copy" fill="#F29651">
                            <polygon id="Rectangle" points="41.249087 2.65332484 46.6453243 7.85391854 11 37.4873518 -2.98427949e-13 37.4873518"></polygon>
                            <polygon id="Rectangle" points="37.8251836 5.54413971 43.9374588 0.35101978 88 37.4873518 77 37.4873518"></polygon>
                        </g>
                    </g>
                    <g id="Group-5" transform="translate(49.766158, 174.097947)" opacity="0.5" stroke="#FFFFFF" stroke-width="2">
                        <g id="Group-12">
                            <path d="M2.25597319e-13,25.1461347 L15.7035187,25.1461347 L15.7035187,7.55584776 C14.7948096,2.51861592 12.1775565,1.77635684e-15 7.85175934,1.77635684e-15 C3.52596223,1.77635684e-15 0.908709111,2.51861592 2.25597319e-13,7.55584776 L2.25597319e-13,25.1461347 Z" id="Path-8" fill="#D2AA89"></path>
                            <line x1="0.743680948" y1="7.49412313" x2="15.2575326" y2="7.49412313" id="Path-9"></line>
                            <line x1="7.85175934" y1="7.71550813" x2="7.85175934" y2="24.6796838" id="Path-10"></line>
                        </g>
                        <g id="Group-12-Copy-2" transform="translate(0.000000, 34.000000)">
                            <path d="M2.25597319e-13,25.1461347 L15.7035187,25.1461347 L15.7035187,7.55584776 C14.7948096,2.51861592 12.1775565,1.77635684e-15 7.85175934,1.77635684e-15 C3.52596223,1.77635684e-15 0.908709111,2.51861592 2.25597319e-13,7.55584776 L2.25597319e-13,25.1461347 Z" id="Path-8" fill="#D2AA89"></path>
                            <line x1="0.743680948" y1="7.49412313" x2="15.2575326" y2="7.49412313" id="Path-9"></line>
                            <line x1="7.85175934" y1="7.71550813" x2="7.85175934" y2="24.6796838" id="Path-10"></line>
                        </g>
                        <g id="Group-12-Copy" transform="translate(32.000000, 0.000000)">
                            <path d="M2.25597319e-13,25.1461347 L15.7035187,25.1461347 L15.7035187,7.55584776 C14.7948096,2.51861592 12.1775565,1.77635684e-15 7.85175934,1.77635684e-15 C3.52596223,1.77635684e-15 0.908709111,2.51861592 2.25597319e-13,7.55584776 L2.25597319e-13,25.1461347 Z" id="Path-8" fill="#D2AA89"></path>
                            <line x1="0.743680948" y1="7.49412313" x2="15.2575326" y2="7.49412313" id="Path-9"></line>
                            <line x1="7.85175934" y1="7.71550813" x2="7.85175934" y2="24.6796838" id="Path-10"></line>
                        </g>
                        <g id="Group-12-Copy-3" transform="translate(32.000000, 34.000000)">
                            <path d="M2.25597319e-13,25.1461347 L15.7035187,25.1461347 L15.7035187,7.55584776 C14.7948096,2.51861592 12.1775565,1.77635684e-15 7.85175934,1.77635684e-15 C3.52596223,1.77635684e-15 0.908709111,2.51861592 2.25597319e-13,7.55584776 L2.25597319e-13,25.1461347 Z" id="Path-8" fill="#D2AA89"></path>
                            <line x1="0.743680948" y1="7.49412313" x2="15.2575326" y2="7.49412313" id="Path-9"></line>
                            <line x1="7.85175934" y1="7.71550813" x2="7.85175934" y2="24.6796838" id="Path-10"></line>
                        </g>
                    </g>
                    <g id="Group-5-Copy" transform="translate(228.766158, 174.097947)" opacity="0.5" stroke="#FFFFFF" stroke-width="2">
                        <g id="Group-12">
                            <path d="M2.25597319e-13,25.1461347 L15.7035187,25.1461347 L15.7035187,7.55584776 C14.7948096,2.51861592 12.1775565,1.77635684e-15 7.85175934,1.77635684e-15 C3.52596223,1.77635684e-15 0.908709111,2.51861592 2.25597319e-13,7.55584776 L2.25597319e-13,25.1461347 Z" id="Path-8" fill="#D2AA89"></path>
                            <line x1="0.743680948" y1="7.49412313" x2="15.2575326" y2="7.49412313" id="Path-9"></line>
                            <line x1="7.85175934" y1="7.71550813" x2="7.85175934" y2="24.6796838" id="Path-10"></line>
                        </g>
                        <g id="Group-12-Copy-2" transform="translate(0.000000, 34.000000)">
                            <path d="M2.25597319e-13,25.1461347 L15.7035187,25.1461347 L15.7035187,7.55584776 C14.7948096,2.51861592 12.1775565,1.77635684e-15 7.85175934,1.77635684e-15 C3.52596223,1.77635684e-15 0.908709111,2.51861592 2.25597319e-13,7.55584776 L2.25597319e-13,25.1461347 Z" id="Path-8" fill="#D2AA89"></path>
                            <line x1="0.743680948" y1="7.49412313" x2="15.2575326" y2="7.49412313" id="Path-9"></line>
                            <line x1="7.85175934" y1="7.71550813" x2="7.85175934" y2="24.6796838" id="Path-10"></line>
                        </g>
                        <g id="Group-12-Copy" transform="translate(32.000000, 0.000000)">
                            <path d="M2.25597319e-13,25.1461347 L15.7035187,25.1461347 L15.7035187,7.55584776 C14.7948096,2.51861592 12.1775565,1.77635684e-15 7.85175934,1.77635684e-15 C3.52596223,1.77635684e-15 0.908709111,2.51861592 2.25597319e-13,7.55584776 L2.25597319e-13,25.1461347 Z" id="Path-8" fill="#D2AA89"></path>
                            <line x1="0.743680948" y1="7.49412313" x2="15.2575326" y2="7.49412313" id="Path-9"></line>
                            <line x1="7.85175934" y1="7.71550813" x2="7.85175934" y2="24.6796838" id="Path-10"></line>
                        </g>
                        <g id="Group-12-Copy-3" transform="translate(32.000000, 34.000000)">
                            <path d="M2.25597319e-13,25.1461347 L15.7035187,25.1461347 L15.7035187,7.55584776 C14.7948096,2.51861592 12.1775565,1.77635684e-15 7.85175934,1.77635684e-15 C3.52596223,1.77635684e-15 0.908709111,2.51861592 2.25597319e-13,7.55584776 L2.25597319e-13,25.1461347 Z" id="Path-8" fill="#D2AA89"></path>
                            <line x1="0.743680948" y1="7.49412313" x2="15.2575326" y2="7.49412313" id="Path-9"></line>
                            <line x1="7.85175934" y1="7.71550813" x2="7.85175934" y2="24.6796838" id="Path-10"></line>
                        </g>
                    </g>
                    <line x1="163" y1="193" x2="162.851759" y2="252.679684" id="Path-10" stroke="#FFFFFF" stroke-width="2" opacity="0.600000024"></line>
                    <g id="Group-7" transform="translate(91.000000, 79.000000)">
                        <polygon id="Rectangle" fill="#FDDCBD" points="25 37.3435212 75 6 119 34.2293129 119 169.343521 25 169.343521"></polygon>
                        <g id="Group" fill="#F29651">
                            <polygon id="Rectangle" points="67.5320255 3.46330115 78.5320255 3.46330115 11 47.9020823 1.3500312e-13 47.9020823"></polygon>
                            <polygon id="Rectangle" points="67.5320255 3.46330115 72.7066889 3.37459264e-14 150 48 139 48"></polygon>
                        </g>
                        <g id="Group-6" transform="translate(48.000000, 61.000000)" opacity="0.5" stroke="#FFFFFF" stroke-width="2">
                            <g id="Group-12">
                                <path d="M2.26485497e-13,33 L15.7035187,33 L15.7035187,9.91575758 C14.7948096,3.30525253 12.1775565,0 7.85175934,0 C3.52596223,0 0.908709111,3.30525253 2.26485497e-13,9.91575758 L2.26485497e-13,33 Z" id="Path-8" fill="#D2AA89"></path>
                                <line x1="0.743680948" y1="8.49412313" x2="15.2575326" y2="8.49412313" id="Path-9"></line>
                                <line x1="7.85175934" y1="7.71550813" x2="7.85175934" y2="32.7155081" id="Path-10"></line>
                            </g>
                            <g id="Group-12-Copy" transform="translate(32.000000, 0.000000)">
                                <path d="M2.23820962e-13,33 L15.7035187,33 L15.7035187,9.91575758 C14.7948096,3.30525253 12.1775565,0 7.85175934,0 C3.52596223,0 0.908709111,3.30525253 2.23820962e-13,9.91575758 L2.23820962e-13,33 Z" id="Path-8" fill="#D2AA89"></path>
                                <line x1="0.743680948" y1="8.49412313" x2="15.2575326" y2="8.49412313" id="Path-9"></line>
                                <line x1="7.85175934" y1="7.71550813" x2="7.85175934" y2="32.7155081" id="Path-10"></line>
                            </g>
                        </g>
                        <path d="M54.8517593,173.146135 L88.8517593,173.146135 L88.8517593,125.028834 C86.8842952,116.440368 81.2176285,112.146135 71.8517593,112.146135 C62.4858901,112.146135 56.8192235,116.440368 54.8517593,125.028834 L54.8517593,173.146135 Z" id="Path-8" stroke="#FFFFFF" stroke-width="2" fill="#8C725D" opacity="0.600000024"></path>
                    </g>
                    <g id="Group-8" transform="translate(0.000000, 248.000000)">
                        <rect id="Rectangle-Copy-6" fill="#E18947" x="0" y="7" width="324" height="7"></rect>
                        <rect id="Rectangle-Copy-5" fill="#F29651" x="16" y="0" width="296" height="7"></rect>
                    </g>
                    <polygon id="Path-13" fill="#5178A6" transform="translate(166.198753, 45.181206) rotate(40.000000) translate(-166.198753, -45.181206) " points="166 38.6812057 164.939223 51.6812057 167.458282 51.6812057"></polygon>
                    <polygon id="Path-13-Copy" fill="#5178A6" transform="translate(158.632694, 48.229086) rotate(-54.000000) translate(-158.632694, -48.229086) " points="158.433941 44.2290859 157.373165 52.2290859 159.892223 52.2290859"></polygon>
                    <circle id="Oval" fill="#455E7A" cx="162.5" cy="50.5" r="2.5"></circle>
                </g>
                <path d="M0,262 L97,262 C96.9973324,249.516358 90.2773528,244.053796 76.840061,245.612314 C64.4282392,247.051894 76.1455104,233 48.5,233 C35.1717072,233 37.6100287,241.09136 29.9624145,245.612314 C22.1149935,250.251386 10.0140835,235.282143 0,262 Z" id="Path-11" fill="#9CCC8E"></path>
                <path d="M451,262 L556,262 C555.997112,244.350713 548.722908,236.62778 534.177386,238.831203 C520.741908,240.866471 533.425552,221 503.5,221 C489.072467,221 491.711887,232.439509 483.433541,238.831203 C474.938911,245.389891 461.839987,224.226478 451,262 Z" id="Path-11-Copy-3" fill="#9CCC8E"></path>
                <g id="Group-14" transform="translate(70.000000, 162.000000)">
                    <g id="Group-13" transform="translate(0.426477, 0.530736)" fill="#B0C663">
                        <path d="M26.8295557,0 C-8.94318523,58.2950607 -8.94318523,87.4425911 26.8295557,87.4425911 L26.8295557,0 Z" id="Path-14"></path>
                        <path d="M53.6244275,0 C17.8516866,58.2950607 17.8516866,87.4425911 53.6244275,87.4425911 L53.6244275,0 Z" id="Path-14-Copy" transform="translate(40.209650, 43.721296) scale(-1, 1) translate(-40.209650, -43.721296) "></path>
                    </g>
                    <polygon id="Path-15" fill="#904B2B" points="21.4264769 99.5307357 29.4264769 99.5307357 25.4264769 55.5307357"></polygon>
                    <polygon id="Path-16" fill="#904B2B" points="24.4838074 73.23247 18.4782626 68.6727887 24.4838074 76.8655101"></polygon>
                    <polygon id="Path-16-Copy" fill="#904B2B" transform="translate(30.481035, 76.769149) scale(-1, 1) translate(-30.481035, -76.769149) " points="33.4838074 77.23247 27.4782626 72.6727887 33.4838074 80.8655101"></polygon>
                </g>
                <g id="Group-14-Copy" transform="translate(442.000000, 162.000000)">
                    <g id="Group-13" transform="translate(0.426477, 0.530736)" fill="#B0C663">
                        <path d="M26.8295557,0 C-8.94318523,58.2950607 -8.94318523,87.4425911 26.8295557,87.4425911 L26.8295557,0 Z" id="Path-14"></path>
                        <path d="M53.6244275,0 C17.8516866,58.2950607 17.8516866,87.4425911 53.6244275,87.4425911 L53.6244275,0 Z" id="Path-14-Copy" transform="translate(40.209650, 43.721296) scale(-1, 1) translate(-40.209650, -43.721296) "></path>
                    </g>
                    <polygon id="Path-15" fill="#904B2B" points="21.4264769 99.5307357 29.4264769 99.5307357 25.4264769 55.5307357"></polygon>
                    <polygon id="Path-16" fill="#904B2B" points="24.4838074 73.23247 18.4782626 68.6727887 24.4838074 76.8655101"></polygon>
                    <polygon id="Path-16-Copy" fill="#904B2B" transform="translate(30.481035, 76.769149) scale(-1, 1) translate(-30.481035, -76.769149) " points="33.4838074 77.23247 27.4782626 72.6727887 33.4838074 80.8655101"></polygon>
                </g>
            </g>
        </g>
    </g>
</svg>